<svg width="24" height="24" xmlns="http://www.w3.org/2000/svg"><g fill="none" fill-rule="evenodd"><path d="M0 0h24v24H0z"/><path fill="#708C91" fill-rule="nonzero" d="M9 17h6v-1H9z"/><path d="M19 17h2a1 1 0 0 0 1-1v-4a1 1 0 0 0-1-1H3a1 1 0 0 0-1 1v4a1 1 0 0 0 1 1h2v-1H3v-4h18v4h-2v1z" fill="#708C91" fill-rule="nonzero"/><path d="M17.96 11.3l-1.4-3.13a2.37 2.37 0 0 0-2.17-1.35H7.6c-.95 0-1.81.53-2.18 1.35L4.04 11.3a.5.5 0 1 0 .92.4l1.39-3.12c.2-.45.7-.76 1.26-.76h6.78c.56 0 1.06.3 1.26.76l1.4 3.12a.5.5 0 0 0 .9-.4zM7 19a2.5 2.5 0 1 1 0-5 2.5 2.5 0 0 1 0 5zm0-1a1.5 1.5 0 1 0 0-3 1.5 1.5 0 0 0 0 3zM17 19a2.5 2.5 0 1 1 0-5 2.5 2.5 0 0 1 0 5zm0-1a1.5 1.5 0 1 0 0-3 1.5 1.5 0 0 0 0 3z" fill="#708C91" fill-rule="nonzero"/><path d="M10.5 7.5v4a.5.5 0 1 0 1 0v-4a.5.5 0 1 0-1 0z" fill="#708C91" fill-rule="nonzero"/></g></svg>